<svg width="196" height="40" viewBox="0 0 196 40" fill="none" xmlns="http://www.w3.org/2000/svg">
<path d="M14.7232 35.9378H13.2067V35.2148H17.0908V35.9378H15.5742V39.8153H14.7232V35.9378Z" fill="white"/>
<path d="M19.7664 37.5159C19.7664 36.1576 20.8138 35.1499 22.2321 35.1499C23.6504 35.1499 24.6978 36.1467 24.6978 37.5159C24.6978 38.8851 23.6504 39.8818 22.2321 39.8818C20.8247 39.8818 19.7664 38.8741 19.7664 37.5159ZM23.8468 37.5159C23.8468 36.5739 23.1595 35.8947 22.2321 35.8947C21.3047 35.8947 20.6174 36.5739 20.6174 37.5159C20.6174 38.4579 21.3047 39.137 22.2321 39.137C23.1595 39.137 23.8468 38.4579 23.8468 37.5159Z" fill="white"/>
<path d="M33.7442 35.2148H35.7517C37.2356 35.2148 38.2502 36.1349 38.2502 37.5151C38.2502 38.8952 37.2356 39.8153 35.7517 39.8153H33.7442V35.2148ZM35.7081 39.0924C36.7337 39.0924 37.3883 38.468 37.3883 37.5151C37.3883 36.5621 36.7228 35.9378 35.7081 35.9378H34.5952V39.0924H35.7081Z" fill="white"/>
<path d="M41.5733 35.2148H42.4243V39.8153H41.5733V35.2148Z" fill="white"/>
<path d="M49.2216 37.4608H50.029V39.2901C49.5489 39.6734 48.8834 39.8706 48.2288 39.8706C46.8104 39.8706 45.763 38.8738 45.763 37.5046C45.763 36.1354 46.8104 35.1387 48.2397 35.1387C49.0034 35.1387 49.6471 35.3906 50.0835 35.8835L49.5489 36.4093C49.1889 36.0478 48.7743 35.8835 48.2833 35.8835C47.3123 35.8835 46.6249 36.5517 46.6249 37.5046C46.6249 38.4357 47.3123 39.1258 48.2833 39.1258C48.6106 39.1258 48.927 39.06 49.2216 38.8848V37.4608Z" fill="white"/>
<path d="M53.5774 35.2148H54.4284V39.8153H53.5774V35.2148Z" fill="white"/>
<path d="M59.0195 35.9378H57.5029V35.2148H61.387V35.9378H59.8705V39.8153H59.0195V35.9378Z" fill="white"/>
<path d="M67.2044 38.7528H64.9132L64.4659 39.8153H63.593L65.6551 35.2148H66.4952L68.5682 39.8153H67.6735L67.2044 38.7528ZM66.9207 38.0847L66.0588 36.0692L65.1969 38.0847H66.9207Z" fill="white"/>
<path d="M71.5542 35.2148H72.4052V39.0924H74.8055V39.8153H71.5542V35.2148Z" fill="white"/>
<path d="M77.9084 35.2148H78.7594V39.8153H77.9084V35.2148Z" fill="white"/>
<path d="M82.0394 39.3342L82.334 38.666C82.7049 38.9617 83.2832 39.1698 83.8505 39.1698C84.5597 39.1698 84.8652 38.9179 84.8652 38.5674C84.8652 37.5706 82.1376 38.2278 82.1376 36.5191C82.1376 35.7743 82.7268 35.1499 83.9815 35.1499C84.527 35.1499 85.1052 35.2923 85.5089 35.5552L85.2362 36.2234C84.8216 35.9824 84.3742 35.8619 83.9705 35.8619C83.2614 35.8619 82.9777 36.1357 82.9777 36.4862C82.9777 37.4611 85.6944 36.8258 85.6944 38.5126C85.6944 39.2465 85.0943 39.8818 83.8396 39.8818C83.1305 39.8818 82.4213 39.6628 82.0394 39.3342Z" fill="white"/>
<path d="M92.4027 39.1033V39.8153H88.966V35.2148H92.3155V35.9268H89.817V37.1317H92.0318V37.8327H89.817V39.1033H92.4027Z" fill="white"/>
<path d="M113.808 35.9378H112.292V35.2148H116.176V35.9378H114.659V39.8153H113.808V35.9378Z" fill="white"/>
<path d="M118.866 37.5159C118.866 36.1576 119.914 35.1499 121.332 35.1499C122.75 35.1499 123.798 36.1467 123.798 37.5159C123.798 38.8851 122.75 39.8818 121.332 39.8818C119.914 39.8818 118.866 38.8741 118.866 37.5159ZM122.947 37.5159C122.947 36.5739 122.259 35.8947 121.332 35.8947C120.405 35.8947 119.717 36.5739 119.717 37.5159C119.717 38.4579 120.405 39.137 121.332 39.137C122.259 39.137 122.947 38.4579 122.947 37.5159Z" fill="white"/>
<path d="M132.448 39.3342L132.742 38.666C133.113 38.9617 133.692 39.1698 134.259 39.1698C134.968 39.1698 135.274 38.9179 135.274 38.5674C135.274 37.5706 132.546 38.2278 132.546 36.5191C132.546 35.7743 133.135 35.1499 134.39 35.1499C134.935 35.1499 135.514 35.2923 135.917 35.5552L135.645 36.2234C135.23 35.9824 134.783 35.8619 134.379 35.8619C133.67 35.8619 133.386 36.1357 133.386 36.4862C133.386 37.4611 136.103 36.8258 136.103 38.5126C136.103 39.2465 135.503 39.8818 134.248 39.8818C133.539 39.8818 132.83 39.6628 132.448 39.3342Z" fill="white"/>
<path d="M139.374 35.2148H140.225V39.8153H139.374V35.2148Z" fill="white"/>
<path d="M148.098 39.815L148.087 36.759L146.582 39.2783H146.2L144.694 36.7919V39.8041H143.887V35.2036H144.585L146.407 38.2596L148.196 35.2036H148.895L148.906 39.8041H148.098V39.815Z" fill="white"/>
<path d="M156.415 36.8466C156.415 37.8544 155.673 38.4787 154.462 38.4787H153.425V39.8041H152.574V35.2036H154.462C155.662 35.2146 156.415 35.828 156.415 36.8466ZM155.553 36.8466C155.553 36.2661 155.171 35.9375 154.418 35.9375H153.425V37.7667H154.418C155.171 37.7667 155.553 37.4272 155.553 36.8466Z" fill="white"/>
<path d="M159.692 35.2148H160.543V39.0924H162.943V39.8153H159.692V35.2148Z" fill="white"/>
<path d="M166.039 35.2148H166.89V39.8153H166.039V35.2148Z" fill="white"/>
<path d="M171.41 35.9268V37.3289H173.624V38.0518H171.41V39.8153H170.559V35.2148H173.908V35.9268H171.41Z" fill="white"/>
<path d="M179.131 38.1942V39.8153H178.28V38.2052L176.48 35.2148H177.385L178.727 37.4603L180.08 35.2148H180.92L179.131 38.1942Z" fill="white"/>
<path d="M102.034 39.1039C102.715 39.1039 103.267 38.5498 103.267 37.8662C103.267 37.1826 102.715 36.6284 102.034 36.6284C101.354 36.6284 100.802 37.1826 100.802 37.8662C100.802 38.5498 101.354 39.1039 102.034 39.1039Z" fill="white"/>
<path d="M108.216 25.5216L108.609 26.146C109.896 28.2271 108.216 30.3302 105.783 30.3302H105.586C104.517 30.3302 103.513 29.7716 102.946 28.8624L100.317 25.1273L96.8145 19.8586L96.6617 19.5958C95.5161 18.0404 95.9853 18.369 93.6286 18.369H87.0933V30.3193H80.558V0.131348H99.8039C102.521 0.131348 104.975 1.04049 106.754 2.50826C108.532 3.97604 109.634 6.00244 109.634 8.24791C109.634 11.523 109.023 15.7292 105.619 17.0326C104.735 17.3832 103.786 17.5913 102.793 17.6789L108.216 25.5216ZM99.793 12.3993C100.262 12.3993 100.731 12.3117 101.157 12.1364C102.357 11.7092 103.142 10.4496 103.142 8.86131C103.142 7.43735 102.51 6.79109 102.15 6.48439C101.735 6.13388 100.95 5.70669 99.793 5.70669H87.0933V12.4322L99.793 12.3993Z" fill="white"/>
<path d="M119.588 8.28049V11.0846H132.702C134.186 11.0846 135.386 12.2895 135.386 13.7792C135.386 15.2688 134.186 16.4737 132.702 16.4737H119.588V22.1696C119.588 23.6812 121.104 24.9299 122.937 24.9299H139.99V30.319H122.937C117.504 30.319 113.107 26.6496 113.107 22.1586V8.28049C113.107 3.78955 117.493 0.120117 122.937 0.120117H139.99V5.50925H122.937C121.104 5.52021 119.588 6.76891 119.588 8.28049Z" fill="white"/>
<path d="M158.9 30.3195H159.009L158.9 30.4071V30.3195ZM195.341 0.197266L181.234 15.2803L180.448 16.1018V27.3182C180.448 28.9503 179.128 30.2866 177.491 30.2866H176.891C175.266 30.2866 173.935 28.9612 173.935 27.3182V16.1785L173.051 15.2803L158.955 0.197266H167.181L177.175 10.8989L187.169 0.197266H195.341Z" fill="white"/>
<path d="M76.8412 30.3303L63.6069 2.6398H63.596C62.9087 1.10631 61.0103 0 58.4354 0C55.6533 0 53.9731 1.10631 53.2748 2.6398H53.2639L40.0405 30.3303H47.4923L58.359 7.57984C58.3809 7.57984 58.4136 7.57984 58.4354 7.57984C58.4681 7.57984 58.49 7.57984 58.5227 7.57984L69.3894 30.3303H76.8412Z" fill="white"/>
<path d="M27.7345 7.71106C27.6908 7.61248 27.6472 7.5139 27.6035 7.42627L27.7345 7.71106Z" fill="white"/>
<path d="M47.7329 0.065918L34.3568 30.2757H29.6217L23.861 16.3538L18.1003 30.2757H13.3652L-7.62939e-06 0.065918H7.97548L16.1037 17.6463L19.8351 8.12771L20.086 7.49241C20.0969 7.4705 20.1078 7.4486 20.1187 7.42669C20.9916 5.59745 22.4754 5.23598 23.8828 5.23598C25.2466 5.23598 26.654 5.4441 27.6142 7.42669C27.6578 7.51432 27.7014 7.6129 27.7451 7.71148C27.7451 7.72243 27.756 7.73339 27.756 7.74434L27.8324 7.93055L31.7928 17.734L39.7574 0.065918H47.7329Z" fill="white"/>
<path d="M20.1095 7.42627C20.0981 7.4489 20.0867 7.47153 20.0753 7.49416L20.1095 7.42627Z" fill="white"/>
<path d="M19.8332 8.12798C19.9095 7.89796 19.9859 7.68984 20.0841 7.49268L19.8332 8.12798Z" fill="white"/>
<path d="M169.017 24.7437V30.5272H156.252C154.419 30.5272 152.695 30.1767 151.124 29.5304C148.822 28.5775 146.945 27.0221 145.844 25.1271C145.058 23.8346 144.643 22.4106 144.643 20.8991V3.53772C144.643 1.76325 146.084 0.317383 147.851 0.317383H147.971C149.739 0.317383 151.179 1.76325 151.179 3.53772V21.0305C151.222 23.3307 153.099 24.678 155.619 24.6999L169.017 24.7437Z" fill="white"/>
<path d="M58.438 26.7266C60.3602 26.7266 61.9184 25.1622 61.9184 23.2325C61.9184 21.3027 60.3602 19.7383 58.438 19.7383C56.5158 19.7383 54.9576 21.3027 54.9576 23.2325C54.9576 25.1622 56.5158 26.7266 58.438 26.7266Z" fill="white"/>
</svg>
