<svg width="96" height="96" viewBox="0 0 96 96" fill="none" xmlns="http://www.w3.org/2000/svg">
<rect width="96" height="96" fill="white"/>
<path d="M14.1012 55.1335H13.4727V54.829H15.0824V55.1335H14.4539V56.7664H14.1012V55.1335Z" fill="#1E1E1E"/>
<path d="M16.1914 55.7977C16.1914 55.2257 16.6255 54.8013 17.2133 54.8013C17.8011 54.8013 18.2352 55.2211 18.2352 55.7977C18.2352 56.3742 17.8011 56.794 17.2133 56.794C16.63 56.794 16.1914 56.3696 16.1914 55.7977ZM17.8825 55.7977C17.8825 55.401 17.5976 55.115 17.2133 55.115C16.829 55.115 16.5441 55.401 16.5441 55.7977C16.5441 56.1944 16.829 56.4803 17.2133 56.4803C17.5976 56.4803 17.8825 56.1944 17.8825 55.7977Z" fill="#1E1E1E"/>
<path d="M21.9805 54.829H22.8125C23.4274 54.829 23.8479 55.2165 23.8479 55.7977C23.8479 56.3789 23.4274 56.7664 22.8125 56.7664H21.9805V54.829ZM22.7944 56.4619C23.2194 56.4619 23.4907 56.199 23.4907 55.7977C23.4907 55.3964 23.2149 55.1335 22.7944 55.1335H22.3332V56.4619H22.7944Z" fill="#1E1E1E"/>
<path d="M25.2285 54.829H25.5812V56.7664H25.2285V54.829Z" fill="#1E1E1E"/>
<path d="M28.3982 55.777H28.7328V56.5473C28.5339 56.7088 28.258 56.7918 27.9867 56.7918C27.3989 56.7918 26.9648 56.372 26.9648 55.7955C26.9648 55.2189 27.3989 54.7991 27.9913 54.7991C28.3078 54.7991 28.5746 54.9052 28.7554 55.1128L28.5339 55.3342C28.3846 55.182 28.2128 55.1128 28.0093 55.1128C27.6069 55.1128 27.3221 55.3942 27.3221 55.7955C27.3221 56.1875 27.6069 56.4781 28.0093 56.4781C28.145 56.4781 28.2761 56.4505 28.3982 56.3767V55.777Z" fill="#1E1E1E"/>
<path d="M30.2012 54.829H30.5539V56.7664H30.2012V54.829Z" fill="#1E1E1E"/>
<path d="M32.4566 55.1335H31.8281V54.829H33.4378V55.1335H32.8093V56.7664H32.4566V55.1335Z" fill="#1E1E1E"/>
<path d="M35.8482 56.3189H34.8987L34.7133 56.7664H34.3516L35.2062 54.829H35.5543L36.4134 56.7664H36.0427L35.8482 56.3189ZM35.7307 56.0376L35.3735 55.1888L35.0162 56.0376H35.7307Z" fill="#1E1E1E"/>
<path d="M37.6543 54.829H38.007V56.4619H39.0018V56.7664H37.6543V54.829Z" fill="#1E1E1E"/>
<path d="M40.2852 54.829H40.6379V56.7664H40.2852V54.829Z" fill="#1E1E1E"/>
<path d="M41.998 56.5634L42.1201 56.282C42.2739 56.4065 42.5135 56.4942 42.7486 56.4942C43.0426 56.4942 43.1692 56.3881 43.1692 56.2405C43.1692 55.8207 42.0387 56.0975 42.0387 55.3779C42.0387 55.0643 42.2829 54.8013 42.8029 54.8013C43.029 54.8013 43.2686 54.8613 43.4359 54.972L43.3229 55.2534C43.1511 55.1519 42.9657 55.1012 42.7984 55.1012C42.5045 55.1012 42.3869 55.2165 42.3869 55.3641C42.3869 55.7746 43.5128 55.5071 43.5128 56.2174C43.5128 56.5265 43.2641 56.794 42.7441 56.794C42.4502 56.794 42.1563 56.7017 41.998 56.5634Z" fill="#1E1E1E"/>
<path d="M46.2954 56.4665V56.7664H44.8711V54.829H46.2592V55.1289H45.2238V55.6363H46.1417V55.9315H45.2238V56.4665H46.2954Z" fill="#1E1E1E"/>
<path d="M55.1637 55.1335H54.5352V54.829H56.1449V55.1335H55.5164V56.7664H55.1637V55.1335Z" fill="#1E1E1E"/>
<path d="M57.2598 55.7977C57.2598 55.2257 57.6938 54.8013 58.2817 54.8013C58.8695 54.8013 59.3036 55.2211 59.3036 55.7977C59.3036 56.3742 58.8695 56.794 58.2817 56.794C57.6938 56.794 57.2598 56.3696 57.2598 55.7977ZM58.9509 55.7977C58.9509 55.401 58.666 55.115 58.2817 55.115C57.8973 55.115 57.6125 55.401 57.6125 55.7977C57.6125 56.1943 57.8973 56.4803 58.2817 56.4803C58.666 56.4803 58.9509 56.1943 58.9509 55.7977Z" fill="#1E1E1E"/>
<path d="M62.8906 56.5634L63.0127 56.282C63.1664 56.4065 63.4061 56.4942 63.6412 56.4942C63.9351 56.4942 64.0617 56.3881 64.0617 56.2405C64.0617 55.8207 62.9313 56.0975 62.9313 55.3779C62.9313 55.0643 63.1755 54.8013 63.6955 54.8013C63.9216 54.8013 64.1612 54.8613 64.3285 54.972L64.2155 55.2534C64.0437 55.1519 63.8583 55.1012 63.691 55.1012C63.3971 55.1012 63.2795 55.2165 63.2795 55.3641C63.2795 55.7746 64.4054 55.5071 64.4054 56.2174C64.4054 56.5265 64.1567 56.794 63.6367 56.794C63.3428 56.794 63.0489 56.7017 62.8906 56.5634Z" fill="#1E1E1E"/>
<path d="M65.7617 54.829H66.1144V56.7664H65.7617V54.829Z" fill="#1E1E1E"/>
<path d="M69.3782 56.7688L69.3737 55.4818L68.7497 56.5427H68.5914L67.9674 55.4957V56.7642H67.6328V54.8268H67.9222L68.6773 56.1138L69.4189 54.8268H69.7083L69.7128 56.7642H69.3782V56.7688Z" fill="#1E1E1E"/>
<path d="M72.8221 55.5187C72.8221 55.9431 72.5146 56.206 72.0127 56.206H71.5832V56.7642H71.2305V54.8268H72.0127C72.5101 54.8315 72.8221 55.0898 72.8221 55.5187ZM72.4649 55.5187C72.4649 55.2743 72.3066 55.1359 71.9946 55.1359H71.5832V55.9062H71.9946C72.3066 55.9062 72.4649 55.7632 72.4649 55.5187Z" fill="#1E1E1E"/>
<path d="M74.1797 54.829H74.5324V56.4619H75.5271V56.7664H74.1797V54.829Z" fill="#1E1E1E"/>
<path d="M76.8125 54.829H77.1652V56.7664H76.8125V54.829Z" fill="#1E1E1E"/>
<path d="M79.0363 55.1289V55.7193H79.9542V56.0237H79.0363V56.7664H78.6836V54.829H80.0717V55.1289H79.0363Z" fill="#1E1E1E"/>
<path d="M82.2355 56.0837V56.7664H81.8828V56.0883L81.1367 54.829H81.512L82.0682 55.7746L82.6289 54.829H82.977L82.2355 56.0837Z" fill="#1E1E1E"/>
<path d="M50.2883 56.4666C50.5705 56.4666 50.7992 56.2332 50.7992 55.9454C50.7992 55.6575 50.5705 55.4241 50.2883 55.4241C50.0061 55.4241 49.7773 55.6575 49.7773 55.9454C49.7773 56.2332 50.0061 56.4666 50.2883 56.4666Z" fill="#F16622"/>
<path d="M52.8491 50.7472L53.0119 51.0101C53.5455 51.8865 52.8491 52.7721 51.8408 52.7721H51.7594C51.3163 52.7721 50.9003 52.5369 50.6652 52.154L49.5754 50.5811L48.124 48.3624L48.0607 48.2517C47.5859 47.5967 47.7803 47.7351 46.8037 47.7351H44.0952V52.7675H41.3867V40.0551H49.3629C50.4888 40.0551 51.5062 40.4379 52.2432 41.056C52.9803 41.6741 53.4369 42.5274 53.4369 43.473C53.4369 44.8522 53.1837 46.6235 51.773 47.1724C51.4067 47.32 51.0133 47.4076 50.6019 47.4445L52.8491 50.7472ZM49.3584 45.2212C49.5528 45.2212 49.7473 45.1843 49.9236 45.1105C50.421 44.9306 50.7466 44.4002 50.7466 43.7313C50.7466 43.1317 50.4843 42.8595 50.3351 42.7304C50.1633 42.5828 49.8377 42.4029 49.3584 42.4029H44.0952V45.2351L49.3584 45.2212Z" fill="#E01E26"/>
<path d="M57.5628 43.4893V44.6701H62.9979C63.6128 44.6701 64.1102 45.1775 64.1102 45.8048C64.1102 46.4321 63.6128 46.9395 62.9979 46.9395H57.5628V49.3381C57.5628 49.9747 58.1913 50.5005 58.951 50.5005H66.0183V52.7699H58.951C56.6992 52.7699 54.877 51.2247 54.877 49.3335V43.4893C54.877 41.5981 56.6947 40.0529 58.951 40.0529H66.0183V42.3223H58.951C58.1913 42.3269 57.5628 42.8527 57.5628 43.4893Z" fill="#E01E26"/>
<path d="M73.8535 52.7664H73.8987L73.8535 52.8033V52.7664ZM88.9559 40.0817L83.1094 46.4333L82.7838 46.7792V51.5026C82.7838 52.1899 82.2367 52.7526 81.5584 52.7526H81.3098C80.636 52.7526 80.0844 52.1945 80.0844 51.5026V46.8115L79.7181 46.4333L73.8761 40.0817H77.2855L81.4273 44.5882L85.5692 40.0817H88.9559ZM88.9333 52.7664H88.9559V52.8033L88.9333 52.7664Z" fill="#E01E26"/>
<path d="M39.8473 52.7731L34.3625 41.1124H34.358C34.0731 40.4666 33.2863 40.0007 32.2192 40.0007C31.0662 40.0007 30.3699 40.4666 30.0805 41.1124H30.076L24.5957 52.7731H27.684L32.1876 43.1927C32.1966 43.1927 32.2102 43.1927 32.2192 43.1927C32.2328 43.1927 32.2418 43.1927 32.2554 43.1927L36.759 52.7731H39.8473Z" fill="#E01E26"/>
<path d="M19.4918 43.2471C19.4737 43.2056 19.4556 43.1641 19.4375 43.1272H19.442L19.4918 43.2471Z" fill="#E01E26"/>
<path d="M27.7823 40.0284L22.2387 52.7501H20.2763L17.8889 46.8874L15.5014 52.7501H13.539L8 40.0284H11.3053L14.674 47.4317L16.2204 43.4234L16.3244 43.1558C16.3289 43.1466 16.3334 43.1374 16.338 43.1281C16.6997 42.3578 17.3146 42.2056 17.8979 42.2056C18.4631 42.2056 19.0464 42.2933 19.4443 43.1281C19.4624 43.165 19.4805 43.2066 19.4986 43.2481C19.4986 43.2527 19.5031 43.2573 19.5031 43.2619L19.5348 43.3403L21.1761 47.4686L24.477 40.0284H27.7823Z" fill="#E01E26"/>
<path d="M16.3332 43.1272C16.3282 43.1369 16.3233 43.1465 16.3184 43.1562L16.3332 43.1272Z" fill="#E01E26"/>
<path d="M16.2188 43.4213C16.2504 43.3245 16.2821 43.2368 16.3227 43.1538L16.2188 43.4213Z" fill="#E01E26"/>
<path d="M78.0467 50.42V52.8555H72.7564C71.9967 52.8555 71.2823 52.7079 70.6312 52.4357C69.6771 52.0344 68.8994 51.3794 68.4427 50.5814C68.1171 50.0371 67.9453 49.4375 67.9453 48.801V41.4899C67.9453 40.7427 68.5422 40.1338 69.2747 40.1338H69.3244C70.0569 40.1338 70.6538 40.7427 70.6538 41.4899V48.8563C70.6719 49.825 71.4496 50.3923 72.4941 50.4015L78.0467 50.42Z" fill="#E01E26"/>
<path d="M32.2178 51.2549C33.0144 51.2549 33.6602 50.5962 33.6602 49.7835C33.6602 48.9709 33.0144 48.3121 32.2178 48.3121C31.4212 48.3121 30.7754 48.9709 30.7754 49.7835C30.7754 50.5962 31.4212 51.2549 32.2178 51.2549Z" fill="#F16622"/>
</svg>
